<svg version="1.0" xmlns="http://www.w3.org/2000/svg" width="261.000000pt" height="284.000000pt" viewBox="0 0 261.000000 284.000000" preserveAspectRatio="xMidYMid meet">

<g transform="translate(0.000000,284.000000) scale(0.100000,-0.100000)" fill="#f64a4a" stroke="none">
<path d="M484 2819 c-12 -13 -21 -16 -28 -9 -14 14 -45 12 -61 -4 -10 -10 -34 -12 -85 -9 -65 3 -72 2 -77 -17 -3 -11 -14 -20 -24 -20 -21 0 -26 -16 -6 -23 8 -4 7 -6 -3 -6 -8 -1 -36 -12 -62 -26 -26 -14 -53 -25 -61 -25 -29 0 -35 -20 -19 -62 13 -32 13 -45 4 -72 -16 -42 -15 -56 2 -75 8 -9 17 -29 20 -44 4 -21 -1 -31 -19 -43 -20 -13 -22 -20 -15 -39 6 -17 4 -33 -7 -56 -16 -31 -15 -32 11 -51 23 -17 39 -47 18 -34 -5 3 -9 -9 -9 -25 0 -31 -19 -52 -40 -45 -13 5 -10 -42 6 -71 37 -68 36 -144 -3 -180 -26 -23 -26 -26 -11 -43 9 -10 17 -25 19 -33 1 -8 8 -22 15 -31 7 -8 11 -21 8 -28 -2 -7 2 -21 11 -31 13 -15 13 -22 2 -58 -12 -37 -12 -45 3 -71 21 -37 22 -68 2 -68 -8 0 -15 5 -15 10 0 6 5 10 10 10 6 0 10 5 10 11 0 6 -5 9 -12 7 -14 -5 -31 -48 -18 -48 6 0 10 -11 10 -25 0 -18 4 -23 15 -19 11 5 15 -1 15 -20 0 -14 -4 -26 -8 -26 -5 0 -9 -19 -10 -42 -2 -54 -22 -109 -47 -130 -18 -15 -19 -18 -4 -35 26 -30 34 -47 18 -38 -12 8 -12 6 0 -8 11 -14 11 -21 -3 -42 -20 -31 -20 -45 1 -60 15 -11 14 -14 -5 -33 -26 -26 -28 -45 -7 -62 10 -9 12 -17 6 -23 -6 -6 -3 -27 10 -59 22 -58 24 -161 3 -179 -11 -9 -11 -17 0 -43 12 -28 12 -34 -1 -42 -14 -8 -13 -19 5 -89 l20 -80 -25 -27 c-28 -29 -28 -30 21 -86 27 -31 28 -60 1 -109 -20 -36 -21 -44 -9 -60 7 -10 14 -32 14 -49 l0 -30 128 -32 c193 -47 198 -48 213 -23 10 15 16 17 26 9 10 -8 13 -5 13 15 0 26 25 55 37 43 4 -4 1 -11 -7 -17 -10 -6 -4 -7 19 -2 31 6 38 3 66 -32 l32 -38 58 42 c64 45 89 51 104 23 10 -19 63 -25 86 -10 10 6 67 11 122 9 19 -1 40 -10 51 -21 15 -16 24 -19 43 -12 29 11 32 12 64 12 16 0 25 6 25 15 0 16 21 19 105 16 59 -2 138 -28 129 -43 -3 -5 15 2 42 16 36 19 51 23 61 14 10 -8 13 -7 13 2 0 17 69 4 92 -17 16 -14 20 -14 41 0 25 16 33 14 91 -27 l28 -19 21 25 c27 31 62 46 53 23 -3 -9 -2 -14 3 -11 5 3 14 -1 21 -9 11 -13 17 -12 44 8 46 35 90 47 128 37 17 -6 34 -7 37 -5 2 3 12 -2 22 -11 14 -13 21 -13 40 -3 20 10 25 9 40 -10 12 -14 32 -23 56 -26 21 -1 40 -4 43 -5 9 -4 134 1 173 6 36 6 37 7 37 47 1 38 17 77 34 77 3 0 6 -10 6 -22 0 -12 3 -18 7 -15 3 4 6 21 5 39 0 18 6 43 14 55 7 12 14 29 14 38 0 8 5 15 12 15 6 0 4 6 -7 14 -13 9 -16 20 -12 36 3 13 1 30 -5 37 -7 9 -7 13 1 13 9 0 24 -37 26 -62 0 -3 4 -10 8 -15 11 -10 0 70 -16 117 -15 47 -27 62 -45 55 -12 -4 -12 -2 -4 8 7 8 9 17 6 20 -3 3 -6 23 -6 44 0 21 -4 43 -9 49 -6 8 -5 14 5 17 9 4 16 -2 20 -16 3 -12 8 -18 11 -15 4 3 2 15 -4 26 -6 12 -11 29 -11 40 0 11 -6 25 -14 31 -14 12 -11 83 4 89 12 5 -2 62 -16 62 -18 0 -18 12 1 57 22 51 20 89 -5 96 -29 8 -25 44 10 84 36 40 37 49 8 74 -13 10 -18 18 -11 19 9 0 8 9 -3 35 -19 46 -19 89 1 82 11 -5 12 -1 6 17 -6 13 -5 29 1 40 13 23 -5 66 -27 66 -12 0 -15 11 -13 45 1 31 6 45 15 45 19 0 25 22 14 51 -7 20 -5 28 9 37 18 11 18 13 -2 72 l-21 60 23 44 22 45 -20 43 c-31 66 -36 103 -18 139 21 42 20 56 -4 86 -15 20 -17 28 -8 43 9 14 9 22 -2 35 -23 27 -22 53 5 119 29 71 31 96 11 134 -17 35 -29 99 -19 105 5 3 9 53 11 111 3 105 3 106 -20 106 -13 0 -36 7 -53 16 -22 12 -61 16 -142 18 -62 0 -113 5 -113 10 0 4 -11 6 -25 4 -14 -3 -28 -1 -31 4 -3 5 -13 6 -23 3 -9 -4 -29 -8 -45 -9 -23 -2 -33 4 -48 31 -11 18 -24 33 -30 33 -5 0 -29 -13 -53 -30 -24 -16 -51 -30 -60 -30 -16 0 -20 2 -68 45 -15 14 -31 25 -35 25 -4 0 -25 -14 -46 -30 -26 -19 -42 -26 -46 -19 -4 6 -13 9 -21 8 -8 -2 -24 1 -37 5 -17 6 -27 3 -35 -8 -11 -15 -19 -15 -95 -1 -46 9 -92 13 -103 10 -11 -4 -36 -9 -56 -11 -20 -3 -40 -7 -45 -10 -5 -3 -18 4 -28 16 -12 14 -26 20 -36 16 -9 -3 -28 3 -44 14 -24 17 -29 18 -40 5 -8 -9 -18 -12 -27 -7 -9 6 -30 1 -55 -11 -43 -21 -155 -37 -145 -20 3 5 -11 9 -31 8 -20 0 -50 4 -65 8 -22 6 -27 5 -21 -5 5 -7 -4 -5 -20 5 -21 14 -30 16 -42 6 -11 -9 -17 -9 -28 0 -10 8 -16 9 -21 1 -8 -13 -92 -13 -100 0 -16 25 -42 29 -61 9z m1984 -147 c5 -17 -13 -15 -27 2 -10 12 -9 14 5 12 10 -2 20 -8 22 -14z m-18 -32 c0 -5 -2 -10 -4 -10 -3 0 -8 5 -11 10 -3 6 -1 10 4 10 6 0 11 -4 11 -10z m-7 -45 c-8 -22 -22 -18 -16 5 3 11 9 17 14 15 4 -3 6 -12 2 -20z m-816 -167 c-3 -8 -6 -5 -6 6 -1 11 2 17 5 13 3 -3 4 -12 1 -19z m-439 -33 c19 -22 20 -25 4 -26 -15 -1 -15 -2 1 -6 11 -3 30 5 45 19 15 12 20 15 13 5 -12 -15 -12 -17 3 -11 9 3 16 12 16 20 0 8 5 14 10 14 6 0 10 -4 10 -9 0 -4 39 -9 87 -10 48 -1 90 -4 92 -7 2 -2 -4 -11 -15 -19 -16 -12 -12 -12 30 0 27 8 76 15 108 15 42 0 60 4 64 15 9 24 55 -14 48 -40 -4 -17 -4 -18 6 -3 5 9 24 19 41 23 25 6 34 3 46 -14 17 -24 39 -21 85 11 23 15 30 17 47 6 15 -9 25 -9 47 1 17 8 30 9 32 3 1 -5 12 -8 22 -5 15 4 18 1 15 -16 -2 -11 3 -28 12 -37 9 -9 17 -30 18 -48 3 -96 4 -96 31 -96 l27 0 -31 -30 c-18 -16 -27 -30 -21 -30 7 0 9 -10 5 -27 -4 -16 -7 -37 -7 -48 0 -11 -11 -29 -25 -40 l-25 -20 20 -45 c11 -25 22 -72 26 -105 3 -33 8 -76 11 -95 4 -28 3 -32 -6 -20 -9 12 -10 9 -5 -15 11 -44 11 -50 2 -52 -4 -1 -15 -9 -24 -18 -13 -14 -14 -20 -3 -43 7 -15 19 -46 26 -70 12 -38 11 -47 -3 -68 -14 -22 -14 -28 -2 -50 12 -23 11 -27 -10 -44 l-24 -17 19 -29 c55 -80 58 -134 12 -182 l-33 -34 32 -27 c24 -20 31 -32 26 -49 -5 -19 -8 -20 -22 -10 -12 10 -12 8 2 -8 17 -20 17 -23 0 -52 -17 -29 -17 -31 0 -50 24 -27 21 -53 -10 -78 l-27 -21 22 -30 c11 -16 21 -38 21 -49 0 -10 9 -44 20 -74 27 -72 26 -102 -1 -120 -44 -28 -65 -37 -101 -44 -21 -4 -37 -11 -37 -16 0 -10 19 -8 38 4 25 15 24 -2 -1 -18 -23 -16 -62 -12 -52 4 3 4 -5 8 -18 9 -45 1 -62 4 -73 13 -7 5 -23 4 -39 -2 -23 -9 -31 -6 -57 15 l-31 26 -34 -33 c-26 -25 -36 -30 -42 -19 -5 7 -23 14 -40 16 -17 1 -34 5 -38 9 -13 12 -71 6 -84 -10 -12 -14 -14 -14 -25 1 -11 15 -16 15 -53 -7 -35 -20 -44 -21 -73 -10 -21 8 -36 8 -42 2 -15 -15 -37 -12 -57 6 -15 13 -24 14 -48 6 -23 -8 -32 -7 -42 4 -10 13 -15 12 -35 -1 -26 -17 -55 -19 -69 -6 -6 6 -33 6 -66 0 -44 -7 -63 -6 -85 6 -25 13 -30 13 -46 -2 -17 -15 -20 -15 -43 7 -22 21 -27 22 -50 10 -14 -7 -28 -10 -32 -7 -3 4 -12 2 -19 -4 -10 -8 -22 -8 -44 -1 -21 8 -32 8 -36 0 -4 -7 -2 -8 4 -4 7 4 12 3 12 -2 0 -6 -7 -12 -15 -16 -8 -3 -15 -2 -15 2 0 4 -15 8 -33 9 -104 6 -137 14 -137 34 0 10 4 19 9 19 5 0 12 8 16 19 7 22 -14 73 -26 65 -17 -10 -9 23 10 40 16 14 18 27 13 84 -5 66 -5 89 2 167 2 22 4 48 5 58 0 11 6 15 12 11 8 -4 8 0 0 15 -7 11 -16 21 -22 21 -6 0 -8 4 -5 9 3 5 -1 15 -10 22 -11 9 -14 22 -10 44 4 17 2 52 -3 78 -9 49 1 61 27 35 8 -8 12 -8 12 -1 0 6 -7 13 -15 17 -19 7 -20 32 -1 43 19 11 38 51 27 57 -9 6 -21 64 -27 131 -2 22 -6 49 -9 60 -2 12 4 34 14 50 12 21 15 35 8 46 -7 11 -4 27 9 55 27 55 24 66 -18 90 -18 10 -15 18 34 86 10 14 8 20 -11 35 -19 15 -24 30 -26 80 -1 33 1 67 6 74 4 8 3 19 -4 27 -9 11 -7 17 6 27 9 6 14 14 11 17 -3 3 1 21 8 39 18 45 12 74 -18 93 -30 20 -31 43 -3 72 l22 23 -21 35 -20 34 21 6 c12 3 48 6 80 6 55 0 57 -1 47 -20 -10 -18 -9 -19 14 -9 14 7 22 17 19 25 -3 8 0 14 6 14 6 0 11 -5 11 -10 0 -6 4 -9 10 -8 5 2 20 -10 33 -26 l23 -29 45 26 c41 24 51 25 159 23 81 -2 119 1 130 10 15 12 36 17 96 22 22 2 36 -5 52 -23z m936 -186 c-3 -5 -10 -7 -15 -3 -5 3 -7 10 -3 15 3 5 10 7 15 3 5 -3 7 -10 3 -15z m26 -9 c0 -5 -5 -10 -11 -10 -5 0 -7 5 -4 10 3 6 8 10 11 10 2 0 4 -4 4 -10z m-732 -2124 c-7 -8 -15 -12 -17 -11 -5 6 10 25 20 25 5 0 4 -6 -3 -14z" fill="#f64a4a"/>
<path d="M904 2129 c-3 -5 -14 -7 -24 -4 -13 4 -23 -3 -36 -25 -10 -16 -22 -30 -27 -30 -5 0 -7 -7 -3 -15 9 -24 -11 -65 -33 -65 -11 0 -22 6 -24 13 -3 6 -6 0 -6 -15 -1 -16 4 -28 12 -28 7 -1 5 -6 -5 -14 -10 -7 -15 -16 -11 -19 3 -4 1 -7 -5 -7 -7 0 -9 -7 -5 -17 5 -12 2 -15 -10 -10 -13 5 -15 0 -12 -24 7 -54 17 -94 28 -107 8 -10 7 -16 -3 -22 -18 -11 5 -41 26 -33 16 6 16 -17 -1 -29 -5 -4 9 -8 33 -8 30 0 42 -4 42 -15 0 -16 78 -58 92 -49 5 3 15 0 23 -6 8 -7 24 -9 36 -5 14 5 19 4 15 -4 -12 -18 2 -12 23 10 l19 21 7 -21 c7 -23 25 -29 25 -8 0 9 2 9 9 -1 7 -11 15 -11 46 2 20 9 46 16 56 16 11 0 19 7 19 15 0 8 4 15 8 15 4 0 13 20 20 45 9 33 19 48 42 60 16 9 30 20 30 25 0 6 -13 29 -30 52 -16 22 -30 47 -30 54 0 8 -16 31 -35 51 -22 23 -31 39 -24 44 6 3 -4 12 -22 18 -18 6 -48 27 -66 46 -18 19 -39 35 -47 35 -8 0 -28 13 -43 29 -29 29 -97 48 -109 30z m226 -521 c0 -11 -12 -10 -30 2 -12 7 -10 9 8 7 12 0 22 -5 22 -9z" fill="#f64a4a"/>
<path d="M721 1140 c-41 -85 -51 -114 -42 -123 9 -9 13 -6 17 11 7 25 22 20 33 -11 6 -15 4 -25 -7 -33 -11 -8 -12 -13 -4 -18 7 -4 12 -2 12 5 0 15 30 -9 30 -25 0 -6 9 -22 20 -36 11 -15 20 -41 20 -63 l0 -38 116 6 c112 5 118 5 141 -17 20 -19 27 -20 43 -10 24 15 33 15 25 2 -3 -5 2 -11 12 -11 29 -2 48 2 51 12 8 20 49 9 60 -16 14 -30 31 -32 65 -5 32 25 35 25 64 -2 l23 -21 21 26 c33 43 50 48 105 31 37 -11 54 -12 70 -3 17 9 29 7 62 -10 23 -12 44 -21 46 -21 3 0 12 13 21 29 8 16 25 31 37 33 12 2 24 9 26 17 3 10 -1 12 -16 9 -19 -5 -19 -3 -10 18 8 18 14 21 20 12 6 -10 8 -10 8 0 0 22 24 8 31 -19 5 -18 7 -12 8 23 1 26 -4 50 -11 54 -8 5 -9 0 -6 -14 4 -12 2 -22 -2 -22 -17 0 -22 21 -9 36 18 22 20 64 4 71 -12 4 -12 7 0 20 17 16 39 8 31 -13 -3 -7 -1 -16 3 -19 13 -7 20 44 12 94 -6 42 -8 45 -41 49 -19 2 -36 8 -38 13 -2 5 -9 9 -17 9 -7 0 -19 7 -26 16 -12 15 -11 16 9 10 13 -5 22 -3 22 3 0 13 -42 15 -55 2 -6 -5 -26 -12 -45 -15 -26 -4 -30 -4 -15 3 17 8 15 10 -14 10 -18 1 -51 -4 -73 -11 -35 -10 -42 -9 -69 11 -25 19 -35 21 -53 12 -28 -14 -92 0 -88 20 3 11 1 12 -9 2 -7 -7 -23 -13 -35 -13 -14 0 -24 -8 -27 -21 -5 -20 -7 -20 -31 -4 -22 15 -31 16 -57 5 -23 -10 -33 -10 -42 -1 -6 6 -20 11 -31 11 -11 0 -30 10 -42 21 l-23 21 -29 -21 c-17 -11 -35 -21 -41 -21 -6 0 -11 -4 -11 -9 0 -10 -31 -9 -60 1 -8 2 -35 12 -60 20 -25 8 -52 18 -60 22 -12 5 -28 -19 -69 -104z m106 -12 c-3 -7 -5 -2 -5 12 0 14 2 19 5 13 2 -7 2 -19 0 -25z m948 -148 c3 -5 1 -10 -4 -10 -6 0 -11 5 -11 10 0 6 2 10 4 10 3 0 8 -4 11 -10z" fill="#f64a4a"/>
<path d="M1000 800 c0 -5 7 -7 15 -4 8 4 15 8 15 10 0 2 -7 4 -15 4 -8 0 -15 -4 -15 -10z" fill="#f64a4a"/>
<path d="M2575 225 c0 -14 3 -25 8 -25 4 0 7 11 7 25 0 14 -3 25 -7 25 -5 0 -8 -11 -8 -25z" fill="#f64a4a"/>
<path d="M2540 195 c0 -8 4 -15 10 -15 5 0 7 7 4 15 -4 8 -8 15 -10 15 -2 0 -4 -7 -4 -15z" fill="#f64a4a"/>
</g>
</svg>